<?xml version="1.0" encoding="iso-8859-1"?>
<!-- Generator: Adobe Illustrator 19.0.0, SVG Export Plug-In . SVG Version: 6.00 Build 0)  -->
<svg version="1.1" id="Layer_1" xmlns="http://www.w3.org/2000/svg" xmlns:xlink="http://www.w3.org/1999/xlink" x="0px" y="0px"
	 viewBox="0 0 512.001 512.001" style="enable-background:new 0 0 512.001 512.001;" xml:space="preserve">
<path style="fill:#2D527C;" d="M353.4,414.598h-7.846c-8.041,0-14.562-6.519-14.562-14.562s6.521-14.562,14.562-14.562h7.846
	c5.43,0,7.853-2.422,7.853-7.853V247.507c0-8.042,6.521-14.562,14.562-14.562s14.562,6.519,14.562,14.562V377.62
	C390.376,399.046,374.825,414.598,353.4,414.598z"/>
<path style="fill:#CEE8FA;" d="M375.814,182.717V156.86c0-66.172-53.643-119.813-119.813-119.813l0,0
	c-66.172,0-119.813,53.643-119.813,119.813v25.859h239.627V182.717z"/>
<path style="fill:#2D527C;" d="M342.055,53.739l28.879-28.879c5.686-5.686,5.686-14.907,0-20.595
	c-5.688-5.686-14.906-5.686-20.595,0l-33.036,33.036c-18.39-9.468-39.234-14.818-61.302-14.818s-42.912,5.35-61.302,14.818
	L161.662,4.265c-5.688-5.686-14.905-5.686-20.595,0c-5.686,5.686-5.686,14.907,0,20.595l28.879,28.879
	c-29.512,24.669-48.322,61.738-48.322,103.121v25.859c0,0.02,0.003,0.041,0.003,0.061s-0.003,0.041-0.003,0.061v194.784
	c0,19.115,12.378,33.553,30.261,36.447v49.799c0,26.09,22.042,48.131,48.133,48.131c26.088,0,48.128-22.042,48.128-48.131v-49.267
	h15.708v49.267c-0.001,12.38,5.22,24.701,14.324,33.807c9.104,9.104,21.426,14.324,33.807,14.324
	c26.089,0,48.131-22.042,48.131-48.133c0-8.043-6.521-14.562-14.562-14.562s-14.562,6.519-14.562,14.562
	c0,9.949-9.06,19.009-19.008,19.009c-4.714,0-9.529-2.113-13.212-5.796c-3.683-3.683-5.794-8.497-5.794-13.21v-63.829
	c0-8.043-6.521-14.562-14.562-14.562h-44.832c-8.041,0-14.562,6.519-14.562,14.562v63.829c0,9.949-9.059,19.008-19.005,19.008
	c-9.949,0-19.009-9.06-19.009-19.008v-63.829c0-8.043-6.521-14.562-14.562-14.562h-7.847c-5.43,0-7.853-2.422-7.853-7.853V197.279
	h225.066c8.041,0,14.562-6.519,14.562-14.562v-25.859C390.376,115.476,371.568,78.408,342.055,53.739z M361.252,168.155H150.749
	v-11.297c0-58.036,47.217-105.251,105.251-105.251s105.251,47.215,105.251,105.251V168.155z"/>
<path style="fill:#CEE8FA;" d="M73.249,358.937L73.249,358.937c-13.953,0-25.266-11.312-25.266-25.266V206.752
	c0-13.953,11.312-25.266,25.266-25.266l0,0c13.953,0,25.266,11.312,25.266,25.266v126.919
	C98.514,347.626,87.203,358.937,73.249,358.937z"/>
<path style="fill:#2D527C;" d="M73.249,373.499c-21.961,0-39.828-17.867-39.828-39.828V206.752
	c0-21.961,17.867-39.828,39.828-39.828s39.828,17.867,39.828,39.828v126.919C113.076,355.633,95.21,373.499,73.249,373.499z
	 M73.249,196.05c-5.902,0-10.704,4.801-10.704,10.704v126.92c0,5.902,4.802,10.704,10.704,10.704s10.704-4.801,10.704-10.704
	v-126.92C83.952,200.851,79.151,196.05,73.249,196.05z"/>
<path style="fill:#CEE8FA;" d="M438.752,358.937L438.752,358.937c-13.953,0-25.266-11.312-25.266-25.266V206.752
	c0-13.953,11.312-25.266,25.266-25.266l0,0c13.953,0,25.266,11.312,25.266,25.266v126.919
	C464.016,347.626,452.705,358.937,438.752,358.937z"/>
<g>
	<path style="fill:#2D527C;" d="M438.752,373.499c-21.961,0-39.828-17.867-39.828-39.828V206.752
		c0-21.961,17.867-39.828,39.828-39.828c21.961,0,39.828,17.867,39.828,39.828v126.919
		C478.578,355.633,460.712,373.499,438.752,373.499z M438.752,196.05c-5.902,0-10.704,4.801-10.704,10.704v126.92
		c0,5.902,4.802,10.704,10.704,10.704c5.902,0,10.704-4.801,10.704-10.704v-126.92C449.455,200.851,444.654,196.05,438.752,196.05z"
		/>
	<circle style="fill:#2D527C;" cx="215.225" cy="112.796" r="12.378"/>
	<circle style="fill:#2D527C;" cx="296.771" cy="112.796" r="12.378"/>
</g>
<g>
</g>
<g>
</g>
<g>
</g>
<g>
</g>
<g>
</g>
<g>
</g>
<g>
</g>
<g>
</g>
<g>
</g>
<g>
</g>
<g>
</g>
<g>
</g>
<g>
</g>
<g>
</g>
<g>
</g>
</svg>
