<svg id="Layer_1" data-name="Layer 1" xmlns="http://www.w3.org/2000/svg" viewBox="0 0 512 512"><title>android-handdrawn</title><g style="isolation:isolate"><path d="M72,202.66s14.19,7.53,13.9,8c-.64,1.12-14.37,5.11-14.79,5.84s20.71,10.65,20.14,11.64c0,0-18.41,2.75-19.21,4.14,0,0,18.69,10.61,18.61,10.76-.18.31-16.16,5.44-16.37,5.8-.33.57,12.43,5.66,11.77,6.8,0,0-11.06,4.66-11.53,5.47-.2.34,14.35,7.71,14.1,8.15-.57,1-14,3.88-14.34,4.47s17.11,8.46,16.49,9.54c-.18.32-24.87-1.77-25.91,0-.72,1.25,22.56,13,22.56,13-.55.95-21.7.21-21.94.63,0,0,21.4,12,21.25,12.28,0,0-18.43,3.13-18.49,3.23-.19.32,16.37,8.42,15.92,9.2" fill="none" stroke="#00ace4" stroke-linecap="round" stroke-linejoin="round" stroke-width="10.27"/><path d="M425.38,202.67s14.24,7.56,13.95,8.06c-.64,1.11-14.28,5.17-14.7,5.9s20.61,10.6,20,11.59c0,0-18.31,2.81-19.11,4.19,0,0,18.6,10.56,18.51,10.7-.18.31-16.07,5.5-16.27,5.86-.33.56,12.33,5.61,11.67,6.75,0,0-11,4.72-11.43,5.53-.2.34,14.25,7.66,14,8.09-.56,1-13.91,3.94-14.24,4.52s17,8.41,16.4,9.48c-.18.32-24.78-1.7-25.82.1-.71,1.24,22.47,13,22.47,13-.55.95-21.6.27-21.84.68,0,0,21.3,12,21.15,12.23,0,0-18.33,3.18-18.39,3.29-.18.32,16.26,8.37,15.81,9.14" fill="none" stroke="#00ace4" stroke-linecap="round" stroke-linejoin="round" stroke-width="10.27"/><path d="M201.9,412c-.5.86,19.05,10.68,18.91,10.93,0,.06-11.81,5.25-12,5.52,0,0,15.56,7.4,14.87,8.6-.13.23-19.38.38-19.7.94-.65,1.12,17.32,8.44,16.64,9.62-.52.91-12.8,5.06-13.12,5.62-.06.11,15.11,8.74,15.11,8.74s-15.12,3.68-15.57,4.44,14.26,8.24,14.26,8.24-21-.2-21.42.46,27.56,15.93,27.56,15.93" fill="none" stroke="#00ace4" stroke-linecap="round" stroke-linejoin="round" stroke-width="10.27"/><path d="M290.24,414.9c-.64,1.12,19.75,10.72,19.45,11.24-.51.89-23.33.57-23.79,1.36-.19.33,22.8,12.87,22.66,13.1,0,0-23.9-3.36-24.6-2.14,0,0,28.25,15.44,27.86,16.11s-19.89,1-19.89,1c-.69,1.2,13.75,7.38,13.51,7.81,0,0-13.12,5.78-13.6,6.62-.28.49,19.39,11,19.31,11.17-.77,1.34-17.56,3.49-17.93,4.13-.24.42,13.8,8,13.8,8" fill="none" stroke="#00ace4" stroke-linecap="round" stroke-linejoin="round" stroke-width="10.27"/><path d="M365.63,202.21s9.32,5,9.16,5.3c-1.19,2.07-28.6-3.94-29.38-2.59-.92,1.59,35.48,18,34.39,19.88,0,0-57.26-23.78-59.82-19.34,0,0,59.52,33.72,59.22,34.24-.91,1.58-82.32-34.77-83.38-32.94-1.72,3,82.24,39.54,78.78,45.54,0,0-95.53-52.33-99.52-45.4-1.3,2.26,103.77,56.13,102.1,59-5.19,9-121.32-64.51-124.4-59.16-2.39,4.14,131.48,64.62,126.56,73.16-1.28,2.23-154.72-91.16-162-78.61C210.47,213.31,376,293,376,293c-5.06,8.77-178.78-95.2-181-91.33,0,0,182,101.32,180.32,104.24,0,0-200.92-103.9-201.64-102.65C171.28,207.4,378.76,308.5,373,318.5c-1.21,2.1-228.41-117-228.41-117-.16.28,239.56,122,232.43,134.37C366.33,354.44,139.85,201.57,134.82,210.3c-7,12.16,255.67,120.85,244,141.07-1.56,2.71-242.27-132.89-245.68-127l243.72,140.9c-4,6.92-233.52-143.79-243.75-126-6.27,10.88,251.06,135.08,246.71,142.63C378.77,383.74,134,252.45,134,252.45c-11.08,19.22,240.71,135,238.9,138.11,0,0-227.71-135.35-235.32-122.15C134.89,273.06,370,402.81,370,402.81c-4,6.9-232.08-131.18-237.17-122.36-9.58,16.61,229.85,132.88,229.85,132.88-8.17,14.17-222.12-115.36-223-113.88C136.42,305.22,342,404.69,337,413.47c-.62,1.07-198-108.73-200.8-103.88-.89,1.55,180.66,98.28,178,102.9,0,0-181.25-94-183.14-90.74-.41.71,157.57,83,154.07,89.07-.07.12-148.37-71-148.37-71-2.14,3.72,132.78,70.56,130.1,75.21,0,0-130-65.53-131.58-62.87,0,0,107.37,62,107.34,62.05-1.05,1.82-106.44-57.09-111-49.19-1.77,3.06,97.53,54.63,96.77,55.95-1.64,2.85-89.29-38.24-89.29-38.24-1.66,2.88,55.62,32.07,55.58,32.13-2.55,4.43-58.62-24.86-60.78-21.1,0,0,33.23,17.62,32.54,18.81" fill="none" stroke="#00ace4" stroke-linecap="round" stroke-linejoin="round" stroke-width="10.27"/><path d="M160,101.58s4.07,2.35,4.07,2.35c-.53.92-12.33,5.89-12.4,6-.38.65,11.73,6.41,11.57,6.69s-13.87,4.41-13.93,4.51c-1.84,3.19,58.18,33.64,58.18,33.64S144,131.86,143.93,131.92c-1,1.81,40.77,21.19,39.75,23-.19.33-42.62-14.62-43.64-12.83-.58,1,25,12.29,24,13.9" fill="none" stroke="#00ace4" stroke-linecap="round" stroke-linejoin="round" stroke-width="10.27"/><path d="M205.15,86.53c-3.58,6.22,116.56,65,115.53,66.79-.29.5-102.22-49.78-103.57-47.43,0,0,88.76,42.53,85,49.12-.69,1.19-90.55-43.81-92.18-41-2.77,4.8,70.75,34.15,67.83,39.21-2.8,4.86-69.36-30.88-71.09-27.89-.2.34,50.25,29.05,50.25,29.05S195.81,128.33,194,131.49c-.94,1.62,38.35,22.17,38.35,22.17" fill="none" stroke="#00ace4" stroke-linecap="round" stroke-linejoin="round" stroke-width="10.27"/><path d="M349.42,98.16c-.11.18,6.33,3.55,6.28,3.63-.3.53-10.87,8.21-11.14,8.67s23.11,13,23,13.28c0,.06-29-6.69-29.88-5.19,0,0,39.27,21.2,38.62,22.33-1,1.68-39.9-10.53-39.9-10.53-1.72,3,37.36,20.19,36.75,21.25" fill="none" stroke="#00ace4" stroke-linecap="round" stroke-linejoin="round" stroke-width="10.27"/><path d="M289.18,54.5S332.57,77,331.45,78.94c-3.2,5.54-71.64-31.84-73.73-28.23-1.59,2.75,58.07,29.23,56.19,32.48,0,0-74.67-35.79-78.07-29.89,0,0,67.65,38.32,67.31,38.91-.91,1.58-82-34.61-83.1-32.78-1.62,2.82,77.52,37.25,74.25,42.93,0,0-82.59-43.53-86-37.59-1.17,2,92.69,50.13,91.19,52.72-4.26,7.38-100.41-51.15-102.94-46.76-2.79,4.84,153.57,75.47,147.81,85.45C343,158.5,183.43,60,175.88,73.12c-.07.13,8.38,4.85,8.38,4.85" fill="none" stroke="#00ace4" stroke-linecap="round" stroke-linejoin="round" stroke-width="10.27"/></g><path d="M79.28,190.32a22.66,22.66,0,0,0-16,6.55,22.41,22.41,0,0,0-6.61,16V322.06a22.64,22.64,0,0,0,45.29,0V212.89a22.39,22.39,0,0,0-6.63-16A22.68,22.68,0,0,0,79.28,190.32Z" fill="none" stroke="#0072bf" stroke-width="11.74"/><path d="M432.63,190.32a22.43,22.43,0,0,0-22.46,22.57V322.06a22.6,22.6,0,0,0,45.19,0V212.89a22.35,22.35,0,0,0-6.66-16A22.81,22.81,0,0,0,432.63,190.32Z" fill="none" stroke="#0072bf" stroke-width="11.74"/><path d="M122,190.32V392.78a33.75,33.75,0,0,0,33.73,33.79h18.08c9,0,13.26-7.66,18.08,0,7.65,12.16,0,14.37,0,28.74V484a22.54,22.54,0,0,0,22.64,22.57A22.19,22.19,0,0,0,230.44,500,22.6,22.6,0,0,0,236.94,484V455.31c0-14.37-8-16.8,0-28.74,5.34-8,9.6,0,19.2,0s13.86-8,19.2,0c8,11.94,0,14.37,0,28.74V484A22.41,22.41,0,0,0,282,500,22.54,22.54,0,0,0,320.53,484V455.31c0-14.37-7.65-16.58,0-28.74,4.82-7.66,9,0,18.08,0h18.08a33.77,33.77,0,0,0,33.83-33.79V190.32c-67.12-.14-67.12,0-134.23,0S189.16,190.18,122,190.32Z" fill="none" stroke="#0072bf" stroke-width="11.74"/><path d="M321.83,53.35c-3.07-12.38,6-11.25,12-22.49s7.27-10.66,12-22.49c.52-1.3-1.23-.65-2.47-1.3s-1.68-2.45-2.47-1.3c-7.22,10.57-6,11.29-12.07,22.58s-2.26,14.36-12.07,22.58a136.85,136.85,0,0,0-29.4-11.08A128.9,128.9,0,0,0,256.23,36a126.94,126.94,0,0,0-29.69,3.51,131,131,0,0,0-28.08,10.29c-9.48-8.09-5.85-11-11.69-22s-4.64-11.74-11.69-22c-.8-1.17-1.26.65-2.52,1.3s-3,0-2.51,1.3c4.52,11.55,5.8,11,11.6,21.93s15,10,11.6,21.93a131.46,131.46,0,0,0-51.17,48.63,134.22,134.22,0,0,0-19.19,68c65.55,12.2,66.67,0,133.34,0s67.77,12,133.35,0A133,133,0,0,0,321.83,53.35ZM187.56,117.17A12.46,12.46,0,0,1,175,104.66a12.18,12.18,0,0,1,3.73-8.76,12.73,12.73,0,0,1,17.67,0,12.15,12.15,0,0,1,3.76,8.73,12.44,12.44,0,0,1-3.71,8.86A12.59,12.59,0,0,1,187.56,117.17Zm135.21,0a12.84,12.84,0,0,1-9-3.59,12.38,12.38,0,0,1-3.76-8.92,12.1,12.1,0,0,1,3.82-8.79,12.93,12.93,0,0,1,8.95-3.51,12.67,12.67,0,0,1,8.82,3.58,12.15,12.15,0,0,1,3.76,8.73,12.43,12.43,0,0,1-3.71,8.85A12.58,12.58,0,0,1,322.77,117.17Z" fill="none" stroke="#0072bf" stroke-width="11.74"/></svg>